<svg width="20" height="20" viewBox="0 0 20 20" fill="none" xmlns="http://www.w3.org/2000/svg">
<path d="M17.4 5.30541L10.525 1.54135C10.3643 1.45257 10.1836 1.40601 10 1.40601C9.81637 1.40601 9.63574 1.45257 9.475 1.54135L2.6 5.30541C2.42797 5.39953 2.28441 5.53818 2.18435 5.70682C2.0843 5.87547 2.03141 6.06791 2.03125 6.264V13.7359C2.03141 13.932 2.0843 14.1244 2.18435 14.2931C2.28441 14.4617 2.42797 14.6003 2.6 14.6945L9.475 18.4585C9.63579 18.5472 9.8164 18.5937 10 18.5937C10.1836 18.5937 10.3642 18.5472 10.525 18.4585L17.4 14.6945C17.572 14.6003 17.7156 14.4617 17.8156 14.2931C17.9157 14.1244 17.9686 13.932 17.9688 13.7359V6.264C17.9686 6.06791 17.9157 5.87547 17.8156 5.70682C17.7156 5.53818 17.572 5.39953 17.4 5.30541ZM9.92188 2.36322C9.94487 2.35064 9.97066 2.34404 9.99687 2.34404C10.0231 2.34404 10.0489 2.35064 10.0719 2.36322L16.6023 5.93744L13.9508 7.38822L7.34766 3.77416L9.92188 2.36322ZM9.53125 17.4218L3.04688 13.8726C3.02291 13.8588 3.00306 13.8388 2.98933 13.8148C2.9756 13.7908 2.9685 13.7635 2.96875 13.7359V6.77025L9.53125 10.364V17.4218ZM3.39766 5.93744L6.37187 4.30853L12.9742 7.9226L10 9.54994L3.39766 5.93744ZM17.0312 13.7359C17.0315 13.7635 17.0244 13.7908 17.0107 13.8148C16.9969 13.8388 16.9771 13.8588 16.9531 13.8726L10.4688 17.4218V10.3624L13.2812 8.8226V11.8749C13.2812 11.9993 13.3306 12.1185 13.4185 12.2064C13.5065 12.2943 13.6257 12.3437 13.75 12.3437C13.8743 12.3437 13.9935 12.2943 14.0815 12.2064C14.1694 12.1185 14.2188 11.9993 14.2188 11.8749V8.3101L17.0312 6.77025V13.7359Z" fill="white"/>
</svg>
