<svg width="12" height="12" viewBox="0 0 12 12" fill="none" xmlns="http://www.w3.org/2000/svg">
<path d="M9.75 2.71875H8.40047L7.73438 1.71891C7.70865 1.68035 7.67379 1.64874 7.6329 1.62691C7.59201 1.60507 7.54636 1.59368 7.5 1.59375H4.5C4.45364 1.59368 4.40799 1.60507 4.3671 1.62691C4.32621 1.64874 4.29135 1.68035 4.26562 1.71891L3.59906 2.71875H2.25C1.9765 2.71875 1.71419 2.8274 1.5208 3.0208C1.3274 3.21419 1.21875 3.4765 1.21875 3.75V9C1.21875 9.2735 1.3274 9.53581 1.5208 9.7292C1.71419 9.9226 1.9765 10.0312 2.25 10.0312H9.75C10.0235 10.0312 10.2858 9.9226 10.4792 9.7292C10.6726 9.53581 10.7812 9.2735 10.7812 9V3.75C10.7812 3.4765 10.6726 3.21419 10.4792 3.0208C10.2858 2.8274 10.0235 2.71875 9.75 2.71875ZM10.2188 9C10.2188 9.12432 10.1694 9.24355 10.0815 9.33146C9.99355 9.41936 9.87432 9.46875 9.75 9.46875H2.25C2.12568 9.46875 2.00645 9.41936 1.91854 9.33146C1.83064 9.24355 1.78125 9.12432 1.78125 9V3.75C1.78125 3.62568 1.83064 3.50645 1.91854 3.41854C2.00645 3.33064 2.12568 3.28125 2.25 3.28125H3.75C3.79636 3.28132 3.84201 3.26993 3.8829 3.24809C3.92379 3.22626 3.95865 3.19465 3.98438 3.15609L4.65047 2.15625H7.34906L8.01562 3.15609C8.04135 3.19465 8.07621 3.22626 8.1171 3.24809C8.15799 3.26993 8.20364 3.28132 8.25 3.28125H9.75C9.87432 3.28125 9.99355 3.33064 10.0815 3.41854C10.1694 3.50645 10.2188 3.62568 10.2188 3.75V9ZM6 4.21875C5.61062 4.21875 5.22998 4.33422 4.90622 4.55054C4.58246 4.76687 4.33012 5.07435 4.18111 5.43409C4.0321 5.79383 3.99311 6.18968 4.06908 6.57158C4.14504 6.95348 4.33255 7.30428 4.60788 7.57962C4.88322 7.85495 5.23402 8.04246 5.61592 8.11842C5.99782 8.19439 6.39367 8.1554 6.75341 8.00639C7.11315 7.85738 7.42063 7.60504 7.63696 7.28128C7.85328 6.95752 7.96875 6.57688 7.96875 6.1875C7.96875 5.66536 7.76133 5.1646 7.39212 4.79538C7.0229 4.42617 6.52214 4.21875 6 4.21875ZM6 7.59375C5.72187 7.59375 5.44999 7.51128 5.21873 7.35675C4.98747 7.20223 4.80723 6.98261 4.70079 6.72565C4.59436 6.46869 4.56651 6.18594 4.62077 5.91315C4.67503 5.64037 4.80896 5.3898 5.00563 5.19313C5.2023 4.99646 5.45287 4.86253 5.72565 4.80827C5.99844 4.75401 6.28119 4.78186 6.53815 4.88829C6.79511 4.99473 7.01473 5.17497 7.16925 5.40623C7.32377 5.63749 7.40625 5.90937 7.40625 6.1875C7.40625 6.56046 7.25809 6.91815 6.99437 7.18187C6.73065 7.44559 6.37296 7.59375 6 7.59375Z" fill="black"/>
</svg>
