<svg width="10" height="11" viewBox="0 0 10 11" fill="none" xmlns="http://www.w3.org/2000/svg">
<path d="M9.65563 3.09987L7.56078 1.0055C7.49114 0.935835 7.40845 0.880575 7.31745 0.842873C7.22644 0.805172 7.1289 0.785767 7.03039 0.785767C6.93189 0.785767 6.83435 0.805172 6.74334 0.842873C6.65234 0.880575 6.56965 0.935835 6.5 1.0055L0.719847 6.78565C0.6499 6.85504 0.594444 6.93765 0.556703 7.02866C0.518962 7.11967 0.499689 7.21728 0.500004 7.31581V9.41065C0.500004 9.60957 0.579021 9.80033 0.719674 9.94098C0.860326 10.0816 1.05109 10.1607 1.25 10.1607H3.34485C3.44338 10.161 3.54098 10.1417 3.632 10.104C3.72301 10.0662 3.80561 10.0108 3.875 9.94081L7.79703 6.01925L7.96016 6.67081L6.23516 8.39534C6.16479 8.46564 6.12524 8.56102 6.1252 8.66049C6.12515 8.75996 6.16462 8.85537 6.23493 8.92573C6.30523 8.9961 6.4006 9.03565 6.50007 9.0357C6.59954 9.03574 6.69495 8.99627 6.76532 8.92597L8.64032 7.05097C8.68618 7.00519 8.71939 6.94831 8.73672 6.88588C8.75406 6.82344 8.75492 6.75758 8.73922 6.69472L8.41578 5.4005L9.65563 4.16065C9.72529 4.09101 9.78055 4.00832 9.81825 3.91731C9.85595 3.82631 9.87536 3.72877 9.87536 3.63026C9.87536 3.53176 9.85595 3.43422 9.81825 3.34321C9.78055 3.2522 9.72529 3.16952 9.65563 3.09987ZM1.25 8.06581L2.59485 9.41065H1.25V8.06581ZM3.5 9.2555L1.40516 7.16065L5.375 3.19081L7.46985 5.28565L3.5 9.2555ZM8 4.7555L5.90563 2.66065L7.03063 1.53565L9.125 3.6305L8 4.7555Z" fill="black"/>
</svg>
