<svg width="21" height="20" viewBox="0 0 21 20" fill="none" xmlns="http://www.w3.org/2000/svg">
<path d="M16.1617 4.38047C15.4286 3.63952 14.5564 3.0506 13.5951 2.64747C12.6339 2.24433 11.6025 2.03493 10.5602 2.03125H10.5C8.38656 2.03125 6.35967 2.87081 4.86524 4.36524C3.37081 5.85967 2.53125 7.88656 2.53125 10V14.375C2.53125 14.8308 2.71233 15.268 3.03466 15.5903C3.35699 15.9127 3.79416 16.0938 4.25 16.0938H5.5C5.95584 16.0938 6.39301 15.9127 6.71534 15.5903C7.03767 15.268 7.21875 14.8308 7.21875 14.375V11.25C7.21875 10.7942 7.03767 10.357 6.71534 10.0347C6.39301 9.71233 5.95584 9.53125 5.5 9.53125H3.48438C3.60329 7.75156 4.39413 6.08357 5.69673 4.8651C6.99934 3.64662 8.71634 2.96875 10.5 2.96875H10.5531C12.3293 2.97663 14.0363 3.65862 15.3289 4.87684C16.6215 6.09506 17.4034 7.75864 17.5164 9.53125H15.5C15.0442 9.53125 14.607 9.71233 14.2847 10.0347C13.9623 10.357 13.7812 10.7942 13.7812 11.25V14.375C13.7812 14.8308 13.9623 15.268 14.2847 15.5903C14.607 15.9127 15.0442 16.0938 15.5 16.0938H17.5312V16.25C17.5312 16.7887 17.3172 17.3054 16.9363 17.6863C16.5554 18.0672 16.0387 18.2812 15.5 18.2812H11.125C11.0007 18.2812 10.8815 18.3306 10.7935 18.4185C10.7056 18.5065 10.6562 18.6257 10.6562 18.75C10.6562 18.8743 10.7056 18.9935 10.7935 19.0815C10.8815 19.1694 11.0007 19.2188 11.125 19.2188H15.5C16.2874 19.2188 17.0425 18.906 17.5992 18.3492C18.156 17.7925 18.4688 17.0374 18.4688 16.25V10C18.4727 8.95762 18.2709 7.9247 17.875 6.96041C17.4792 5.99612 16.8969 5.1194 16.1617 4.38047ZM5.5 10.4688C5.7072 10.4688 5.90591 10.5511 6.05243 10.6976C6.19894 10.8441 6.28125 11.0428 6.28125 11.25V14.375C6.28125 14.5822 6.19894 14.7809 6.05243 14.9274C5.90591 15.0739 5.7072 15.1562 5.5 15.1562H4.25C4.0428 15.1562 3.84409 15.0739 3.69757 14.9274C3.55106 14.7809 3.46875 14.5822 3.46875 14.375V10.4688H5.5ZM14.7188 14.375V11.25C14.7188 11.0428 14.8011 10.8441 14.9476 10.6976C15.0941 10.5511 15.2928 10.4688 15.5 10.4688H17.5312V15.1562H15.5C15.2928 15.1562 15.0941 15.0739 14.9476 14.9274C14.8011 14.7809 14.7188 14.5822 14.7188 14.375Z" fill="white"/>
</svg>
