<svg width="14" height="15" viewBox="0 0 14 15" fill="none" xmlns="http://www.w3.org/2000/svg">
<path d="M6.5625 12.3125C6.5625 12.4285 6.51641 12.5398 6.43436 12.6219C6.35231 12.7039 6.24103 12.75 6.125 12.75H2.625C2.50897 12.75 2.39769 12.7039 2.31564 12.6219C2.23359 12.5398 2.1875 12.4285 2.1875 12.3125V2.6875C2.1875 2.57147 2.23359 2.46019 2.31564 2.37814C2.39769 2.29609 2.50897 2.25 2.625 2.25H6.125C6.24103 2.25 6.35231 2.29609 6.43436 2.37814C6.51641 2.46019 6.5625 2.57147 6.5625 2.6875C6.5625 2.80353 6.51641 2.91481 6.43436 2.99686C6.35231 3.07891 6.24103 3.125 6.125 3.125H3.0625V11.875H6.125C6.24103 11.875 6.35231 11.9211 6.43436 12.0031C6.51641 12.0852 6.5625 12.1965 6.5625 12.3125ZM12.5595 7.19047L10.372 5.00297C10.2899 4.92088 10.1786 4.87476 10.0625 4.87476C9.9464 4.87476 9.83506 4.92088 9.75297 5.00297C9.67088 5.08506 9.62476 5.1964 9.62476 5.3125C9.62476 5.4286 9.67088 5.53994 9.75297 5.62203L11.194 7.0625H6.125C6.00897 7.0625 5.89769 7.10859 5.81564 7.19064C5.73359 7.27269 5.6875 7.38397 5.6875 7.5C5.6875 7.61603 5.73359 7.72731 5.81564 7.80936C5.89769 7.89141 6.00897 7.9375 6.125 7.9375H11.194L9.75297 9.37797C9.67088 9.46006 9.62476 9.5714 9.62476 9.6875C9.62476 9.8036 9.67088 9.91494 9.75297 9.99703C9.83506 10.0791 9.9464 10.1252 10.0625 10.1252C10.1786 10.1252 10.2899 10.0791 10.372 9.99703L12.5595 7.80953C12.6002 7.7689 12.6325 7.72065 12.6545 7.66754C12.6765 7.61442 12.6878 7.55749 12.6878 7.5C12.6878 7.44251 12.6765 7.38558 12.6545 7.33246C12.6325 7.27935 12.6002 7.2311 12.5595 7.19047Z" fill="white"/>
</svg>
