<svg width="21" height="20" viewBox="0 0 21 20" fill="none" xmlns="http://www.w3.org/2000/svg">
<g clip-path="url(#clip0_1336_1526)">
<path d="M20.3102 9.20156L19.2164 6.46719C19.1358 6.26378 18.9958 6.08939 18.8147 5.96675C18.6335 5.84411 18.4196 5.77892 18.2008 5.77969H15.3438V5C15.3438 4.87568 15.2944 4.75645 15.2065 4.66854C15.1185 4.58064 14.9993 4.53125 14.875 4.53125H3C2.70992 4.53125 2.43172 4.64648 2.2266 4.8516C2.02148 5.05672 1.90625 5.33492 1.90625 5.625V14.375C1.90625 14.6651 2.02148 14.9433 2.2266 15.1484C2.43172 15.3535 2.70992 15.4688 3 15.4688H4.45312C4.56071 15.9986 4.84815 16.4749 5.26675 16.8171C5.68535 17.1592 6.20936 17.3461 6.75 17.3461C7.29064 17.3461 7.81465 17.1592 8.23325 16.8171C8.65185 16.4749 8.93929 15.9986 9.04688 15.4688H13.2031C13.3107 15.9986 13.5982 16.4749 14.0168 16.8171C14.4354 17.1592 14.9594 17.3461 15.5 17.3461C16.0406 17.3461 16.5646 17.1592 16.9832 16.8171C17.4018 16.4749 17.6893 15.9986 17.7969 15.4688H19.25C19.5401 15.4688 19.8183 15.3535 20.0234 15.1484C20.2285 14.9433 20.3438 14.6651 20.3438 14.375V9.375C20.3436 9.31558 20.3322 9.25672 20.3102 9.20156ZM15.3438 6.71875H18.2016C18.2329 6.71872 18.2634 6.72809 18.2893 6.74564C18.3153 6.76319 18.3353 6.78812 18.3469 6.81719L19.1828 8.90625H15.3438V6.71875ZM2.84375 5.625C2.84375 5.58356 2.86021 5.54382 2.88951 5.51451C2.91882 5.48521 2.95856 5.46875 3 5.46875H14.4062V10.7812H2.84375V5.625ZM6.75 16.4062C6.47187 16.4062 6.19999 16.3238 5.96873 16.1693C5.73747 16.0147 5.55723 15.7951 5.45079 15.5381C5.34436 15.2812 5.31651 14.9984 5.37077 14.7257C5.42503 14.4529 5.55896 14.2023 5.75563 14.0056C5.9523 13.809 6.20287 13.675 6.47565 13.6208C6.74844 13.5665 7.03119 13.5944 7.28815 13.7008C7.54511 13.8072 7.76473 13.9875 7.91925 14.2187C8.07377 14.45 8.15625 14.7219 8.15625 15C8.15625 15.373 8.00809 15.7306 7.74437 15.9944C7.48065 16.2581 7.12296 16.4062 6.75 16.4062ZM13.2031 14.5312H9.04688C8.93929 14.0014 8.65185 13.5251 8.23325 13.1829C7.81465 12.8408 7.29064 12.6539 6.75 12.6539C6.20936 12.6539 5.68535 12.8408 5.26675 13.1829C4.84815 13.5251 4.56071 14.0014 4.45312 14.5312H3C2.95856 14.5312 2.91882 14.5148 2.88951 14.4855C2.86021 14.4562 2.84375 14.4164 2.84375 14.375V11.7188H14.4062V12.9281C14.1 13.0902 13.8333 13.3179 13.6253 13.5951C13.4173 13.8722 13.2732 14.1919 13.2031 14.5312ZM15.5 16.4062C15.2219 16.4062 14.95 16.3238 14.7187 16.1693C14.4875 16.0147 14.3072 15.7951 14.2008 15.5381C14.0944 15.2812 14.0665 14.9984 14.1208 14.7257C14.175 14.4529 14.309 14.2023 14.5056 14.0056C14.7023 13.809 14.9529 13.675 15.2257 13.6208C15.4984 13.5665 15.7812 13.5944 16.0381 13.7008C16.2951 13.8072 16.5147 13.9875 16.6693 14.2187C16.8238 14.45 16.9062 14.7219 16.9062 15C16.9062 15.373 16.7581 15.7306 16.4944 15.9944C16.2306 16.2581 15.873 16.4062 15.5 16.4062ZM19.4062 14.375C19.4062 14.4164 19.3898 14.4562 19.3605 14.4855C19.3312 14.5148 19.2914 14.5312 19.25 14.5312H17.7969C17.6881 14.0022 17.4003 13.5268 16.9819 13.1853C16.5635 12.8437 16.0401 12.6569 15.5 12.6562C15.4477 12.6562 15.3953 12.6563 15.3438 12.6617V9.84375H19.4062V14.375Z" fill="white"/>
</g>
<defs>
<clipPath id="clip0_1336_1526">
<rect width="20" height="20" fill="white" transform="translate(0.5)"/>
</clipPath>
</defs>
</svg>
