<svg width="21" height="20" viewBox="0 0 21 20" fill="none" xmlns="http://www.w3.org/2000/svg">
<path d="M18.4055 16.6405C17.1703 14.5062 15.2312 13.0085 12.9781 12.3733C14.0735 11.8165 14.9495 10.907 15.4648 9.79138C15.98 8.67579 16.1045 7.41918 15.8183 6.22416C15.532 5.02915 14.8515 3.96539 13.8867 3.20439C12.9218 2.4434 11.7288 2.02954 10.5 2.02954C9.27117 2.02954 8.07815 2.4434 7.11331 3.20439C6.14846 3.96539 5.46804 5.02915 5.18174 6.22416C4.89544 7.41918 5.01996 8.67579 5.53522 9.79138C6.05048 10.907 6.92644 11.8165 8.02187 12.3733C5.76875 13.0077 3.82968 14.5054 2.59453 16.6405C2.56061 16.6939 2.53784 16.7535 2.52758 16.8159C2.51732 16.8783 2.51978 16.9421 2.53482 17.0035C2.54986 17.0649 2.57717 17.1227 2.6151 17.1732C2.65303 17.2238 2.7008 17.2662 2.75553 17.2978C2.81026 17.3295 2.87083 17.3497 2.93359 17.3573C2.99635 17.365 3.06 17.3598 3.12072 17.3422C3.18143 17.3246 3.23796 17.2949 3.28689 17.2548C3.33583 17.2148 3.37616 17.1653 3.40546 17.1093C4.90625 14.5163 7.55781 12.9687 10.5 12.9687C13.4422 12.9687 16.0937 14.5163 17.5945 17.1093C17.6238 17.1653 17.6642 17.2148 17.7131 17.2548C17.762 17.2949 17.8186 17.3246 17.8793 17.3422C17.94 17.3598 18.0036 17.365 18.0664 17.3573C18.1292 17.3497 18.1897 17.3295 18.2445 17.2978C18.2992 17.2662 18.347 17.2238 18.3849 17.1732C18.4228 17.1227 18.4501 17.0649 18.4652 17.0035C18.4802 16.9421 18.4827 16.8783 18.4724 16.8159C18.4622 16.7535 18.4394 16.6939 18.4055 16.6405ZM5.96875 7.4999C5.96875 6.60371 6.2345 5.72764 6.7324 4.98248C7.2303 4.23732 7.93798 3.65653 8.76596 3.31358C9.59394 2.97062 10.505 2.88088 11.384 3.05572C12.263 3.23056 13.0704 3.66212 13.7041 4.29583C14.3378 4.92953 14.7693 5.73692 14.9442 6.6159C15.119 7.49488 15.0293 8.40596 14.6863 9.23394C14.3434 10.0619 13.7626 10.7696 13.0174 11.2675C12.2723 11.7654 11.3962 12.0312 10.5 12.0312C9.29868 12.0297 8.14698 11.5518 7.29752 10.7024C6.44806 9.85292 5.97019 8.70122 5.96875 7.4999Z" fill="white"/>
</svg>
