<svg width="20" height="20" viewBox="0 0 20 20" fill="none" xmlns="http://www.w3.org/2000/svg">
<path d="M16.875 5.15625H4.375C4.1678 5.15625 3.96909 5.07394 3.82257 4.92743C3.67606 4.78091 3.59375 4.5822 3.59375 4.375C3.59375 4.1678 3.67606 3.96909 3.82257 3.82257C3.96909 3.67606 4.1678 3.59375 4.375 3.59375H15C15.1243 3.59375 15.2435 3.54436 15.3315 3.45646C15.4194 3.36855 15.4688 3.24932 15.4688 3.125C15.4688 3.00068 15.4194 2.88145 15.3315 2.79354C15.2435 2.70564 15.1243 2.65625 15 2.65625H4.375C3.91916 2.65625 3.48199 2.83733 3.15966 3.15966C2.83733 3.48199 2.65625 3.91916 2.65625 4.375V14.375C2.65625 14.8308 2.83733 15.268 3.15966 15.5903C3.48199 15.9127 3.91916 16.0938 4.375 16.0938H16.875C17.1651 16.0938 17.4433 15.9785 17.6484 15.7734C17.8535 15.5683 17.9688 15.2901 17.9688 15V6.25C17.9688 5.95992 17.8535 5.68172 17.6484 5.4766C17.4433 5.27148 17.1651 5.15625 16.875 5.15625ZM17.0312 15C17.0312 15.0414 17.0148 15.0812 16.9855 15.1105C16.9562 15.1398 16.9164 15.1562 16.875 15.1562H4.375C4.1678 15.1562 3.96909 15.0739 3.82257 14.9274C3.67606 14.7809 3.59375 14.5822 3.59375 14.375V5.90547C3.83546 6.02953 4.10331 6.09409 4.375 6.09375H16.875C16.9164 6.09375 16.9562 6.11021 16.9855 6.13951C17.0148 6.16882 17.0312 6.20856 17.0312 6.25V15ZM14.8438 10.3125C14.8438 10.467 14.7979 10.6181 14.7121 10.7465C14.6262 10.875 14.5042 10.9752 14.3615 11.0343C14.2187 11.0934 14.0616 11.1089 13.9101 11.0787C13.7585 11.0486 13.6193 10.9742 13.5101 10.8649C13.4008 10.7557 13.3264 10.6165 13.2963 10.4649C13.2661 10.3134 13.2816 10.1563 13.3407 10.0135C13.3998 9.87077 13.5 9.74876 13.6285 9.66291C13.7569 9.57707 13.908 9.53125 14.0625 9.53125C14.2697 9.53125 14.4684 9.61356 14.6149 9.76007C14.7614 9.90659 14.8438 10.1053 14.8438 10.3125Z" fill="white"/>
</svg>
